<?xml version="1.0" standalone="no"?>
<!DOCTYPE svg PUBLIC "-//W3C//DTD SVG 20010904//EN"
 "http://www.w3.org/TR/2001/REC-SVG-20010904/DTD/svg10.dtd">
<svg version="1.0" xmlns="http://www.w3.org/2000/svg"
 width="48.000000pt" height="48.000000pt" viewBox="0 0 48.000000 48.000000"
 preserveAspectRatio="xMidYMid meet">

<g transform="translate(0.000000,48.000000) scale(0.100000,-0.100000)"
fill="#c70101" stroke="none">
<path d="M160 467 c-49 -16 -133 -102 -148 -153 -28 -94 -8 -169 63 -239 101
-102 229 -102 330 0 102 101 102 229 0 330 -70 71 -152 91 -245 62z m168 -46
c154 -79 148 -300 -10 -366 -48 -19 -108 -19 -156 0 -200 84 -141 383 76 385
33 0 67 -7 90 -19z"/>
<path d="M189 253 c-24 -43 -45 -81 -47 -85 -2 -5 42 -8 98 -8 56 0 100 3 98
8 -12 28 -93 162 -98 162 -3 0 -26 -35 -51 -77z"/>
</g>
</svg>
